<svg 
    xmlns="http://www.w3.org/2000/svg" 
    width="32" 
    height="32" 
    viewBox="0 0 24 24" 
    fill="none">
    <circle 
        cx="12" 
        cy="12" 
        r="12" 
        />
    <path 
        fill-rule="evenodd" 
        clip-rule="evenodd" 
        d="M12 2C6.477 2 2 6.477 2 12c0 4.418 2.867 8.166 6.839 9.49.5.09.682-.217.682-.483 0-.237-.01-1.03-.015-1.87-2.782.603-3.369-1.342-3.369-1.342-.454-1.153-1.11-1.46-1.11-1.46-.908-.62.07-.607.07-.607 1.004.07 1.532 1.033 1.532 1.033.892 1.529 2.341 1.088 2.91.832.092-.646.35-1.088.636-1.338-2.22-.253-4.555-1.11-4.555-4.944 0-1.091.39-1.984 1.03-2.682-.103-.254-.446-1.275.098-2.656 0 0 .84-.269 2.75 1.025A9.585 9.585 0 0112 6.845c.851.004 1.705.115 2.504.338 1.91-1.294 2.749-1.025 2.749-1.025.545 1.381.202 2.402.1 2.656.64.698 1.029 1.591 1.029 2.682 0 3.843-2.338 4.687-4.566 4.935.36.31.682.919.682 1.854 0 1.338-.012 2.418-.012 2.747 0 .268.18.578.688.48C19.134 20.162 22 16.417 22 12c0-5.523-4.477-10-10-10z" 
        fill="#fff"/>
</svg>
